<?xml version="1.0" standalone="no"?>
<!DOCTYPE svg PUBLIC "-//W3C//DTD SVG 20010904//EN"
 "http://www.w3.org/TR/2001/REC-SVG-20010904/DTD/svg10.dtd">
<svg version="1.0" xmlns="http://www.w3.org/2000/svg"
 width="144.000000pt" height="144.000000pt" viewBox="0 0 144.000000 144.000000"
 preserveAspectRatio="xMidYMid meet">
<metadata>
Created by potrace 1.14, written by Peter Selinger 2001-2017
</metadata>
<g transform="translate(0.000000,144.000000) scale(0.100000,-0.100000)"
fill="#000000" stroke="none">
<path d="M684 1192 c-6 -4 -16 -21 -23 -39 -17 -41 -42 -46 -82 -17 -24 17
-36 21 -50 14 -14 -8 -16 -16 -9 -41 15 -52 -2 -71 -58 -67 -42 3 -47 1 -50
-19 -2 -12 6 -32 17 -44 28 -30 21 -59 -20 -78 -42 -20 -51 -56 -17 -66 25 -8
58 -34 58 -45 0 -4 -11 -23 -25 -43 -21 -31 -22 -39 -10 -51 9 -9 28 -12 53
-9 47 5 56 -4 54 -61 -1 -22 3 -43 10 -47 6 -4 31 4 54 17 38 23 43 23 58 9 9
-9 19 -27 22 -40 11 -46 56 -40 68 10 10 41 38 48 80 18 34 -22 40 -23 53 -10
21 21 8 81 -15 72 -57 -23 -104 -26 -172 -10 -53 13 -136 102 -148 160 -25
116 20 215 120 266 49 25 133 31 177 13 40 -17 39 -17 47 23 5 26 2 33 -17 44
-17 9 -24 9 -27 0 -2 -6 -17 -18 -33 -26 -26 -14 -30 -14 -49 5 -11 11 -20 27
-20 35 0 17 -32 36 -46 27z"/>
<path d="M897 1047 c-11 -26 -37 -57 -69 -82 -73 -58 -89 -72 -90 -82 0 -4 -5
-19 -10 -33 -9 -24 -13 -69 -9 -118 1 -20 3 -21 24 -11 12 6 37 25 56 43 36
33 30 13 -11 -37 -32 -39 -94 -47 -142 -19 -25 15 -33 17 -29 6 3 -8 9 -14 13
-14 5 0 15 -6 22 -13 40 -40 136 -42 202 -3 77 45 120 124 118 221 0 50 -24
135 -46 167 -10 14 -14 10 -29 -25z"/>
<path d="M810 1035 c0 -8 4 -15 10 -15 5 0 7 7 4 15 -4 8 -8 15 -10 15 -2 0
-4 -7 -4 -15z"/>
<path d="M863 1026 c-4 -8 -17 -16 -28 -19 -18 -4 -18 -5 2 -6 13 -1 27 7 33
19 12 22 6 28 -7 6z"/>
<path d="M780 1022 c0 -7 6 -12 13 -12 8 0 9 -3 1 -8 -6 -4 -16 -17 -22 -29
-8 -15 -18 -20 -34 -16 -22 4 -21 4 2 -9 23 -13 26 -12 33 6 4 12 15 27 24 34
16 11 16 13 0 29 -11 11 -17 13 -17 5z"/>
<path d="M755 1000 c3 -5 8 -10 11 -10 2 0 4 5 4 10 0 6 -5 10 -11 10 -5 0 -7
-4 -4 -10z"/>
<path d="M730 986 c0 -2 7 -7 16 -10 8 -3 12 -2 9 4 -6 10 -25 14 -25 6z"/>
<path d="M988 870 c-6 -37 -1 -42 23 -29 24 13 24 35 0 48 -16 9 -19 6 -23
-19z"/>
<path d="M941 729 c-22 -23 -27 -38 -13 -40 4 0 17 -2 29 -3 29 -3 41 30 20
51 -13 13 -17 12 -36 -8z"/>
<path d="M237 452 c-27 -3 -28 -5 -25 -55 3 -52 3 -52 36 -51 64 2 62 1 58 47
-3 23 -5 45 -5 48 -1 10 -32 15 -64 11z m38 -32 c-3 -5 -13 -10 -21 -10 -8 0
-14 5 -14 10 0 6 9 10 21 10 11 0 17 -4 14 -10z m5 -40 c0 -5 -9 -10 -21 -10
-11 0 -17 5 -14 10 3 6 13 10 21 10 8 0 14 -4 14 -10z"/>
<path d="M428 437 c-4 -29 -38 -36 -38 -8 0 12 -6 21 -16 21 -12 0 -14 -10
-12 -50 3 -50 20 -70 26 -30 5 28 30 25 38 -5 6 -26 23 -34 25 -12 6 65 4 97
-7 101 -8 3 -14 -4 -16 -17z"/>
<path d="M669 449 c-14 -8 -19 -48 -7 -55 6 -4 19 -7 29 -8 11 -1 19 -5 19
-11 -1 -5 -12 -9 -25 -7 -12 2 -26 -2 -30 -7 -3 -6 -5 -11 -3 -12 77 -12 87
-11 94 15 8 34 -2 46 -37 46 -18 0 -28 4 -24 10 3 6 17 10 31 10 13 0 24 6 24
13 0 12 -53 17 -71 6z"/>
<path d="M1118 452 c-27 -3 -28 -6 -28 -58 0 -55 14 -72 28 -34 l8 21 23 -21
c30 -25 45 -26 32 -2 -7 13 -7 22 1 30 15 15 2 59 -19 63 -10 3 -30 3 -45 1z
m35 -37 c1 -5 -6 -11 -15 -13 -11 -2 -18 3 -18 13 0 17 30 18 33 0z"/>
<path d="M530 425 c-6 -14 -14 -36 -20 -50 -6 -17 -6 -26 2 -31 7 -4 14 -2 16
4 5 15 45 15 60 0 21 -21 24 -1 5 51 -20 57 -47 68 -63 26z m34 -30 c3 -8 1
-15 -4 -15 -6 0 -10 7 -10 15 0 8 2 15 4 15 2 0 6 -7 10 -15z"/>
<path d="M798 433 c-6 -27 6 -84 17 -84 6 0 12 10 13 22 4 21 5 21 27 -7 27
-33 41 -28 24 8 -8 19 -8 31 0 46 15 27 14 32 -5 32 -9 0 -18 -9 -21 -20 -3
-11 -9 -20 -14 -20 -5 0 -9 9 -9 20 0 25 -26 27 -32 3z"/>
<path d="M963 433 c-3 -10 -12 -32 -19 -50 -10 -26 -10 -32 2 -37 7 -3 17 1
21 9 7 13 12 12 37 0 16 -8 30 -15 32 -15 6 0 -2 39 -16 78 -13 35 -46 44 -57
15z m32 -32 c3 -5 1 -12 -5 -16 -5 -3 -10 1 -10 9 0 18 6 21 15 7z"/>
<path d="M516 271 c-4 -5 -3 -16 0 -24 7 -19 44 -18 44 1 0 11 -3 12 -14 3 -9
-8 -16 -8 -20 -2 -4 5 2 14 11 20 16 9 16 10 1 11 -9 0 -19 -4 -22 -9z"/>
<path d="M601 253 c0 -15 3 -22 6 -15 2 6 11 12 20 12 20 0 11 24 -10 28 -13
3 -17 -4 -16 -25z"/>
<path d="M680 261 c0 -26 17 -36 36 -21 11 10 12 16 3 26 -17 20 -39 17 -39
-5z m30 -6 c0 -8 -4 -15 -10 -15 -5 0 -10 7 -10 15 0 8 5 15 10 15 6 0 10 -7
10 -15z"/>
<path d="M765 258 c1 -12 6 -23 12 -25 7 -3 9 4 6 17 -7 28 -20 34 -18 8z"/>
<path d="M794 266 c1 -8 5 -18 8 -22 4 -3 5 1 4 10 -1 8 -5 18 -8 22 -4 3 -5
-1 -4 -10z"/>
<path d="M850 255 c0 -24 1 -24 20 -8 14 13 16 19 7 25 -20 13 -27 9 -27 -17z"/>
</g>
</svg>
